<svg xmlns="http://www.w3.org/2000/svg" xmlns:xlink="http://www.w3.org/1999/xlink" width="100" height="100" viewBox="0 0 100 100"><circle stroke="none" fill="#E3E3E3" r="48%" cx="50%" cy="50%"></circle><g transform="translate(50 50) scale(0.69 0.69) rotate(0) translate(-50 -50)" style="fill:#CC0000"><svg fill="#CC0000" xmlns="http://www.w3.org/2000/svg" xmlns:xlink="http://www.w3.org/1999/xlink" version="1.1" x="0px" y="0px" viewBox="0 0 100 100" style="enable-background:new 0 0 100 100;" xml:space="preserve"><path d="M45.1,55.5C45.1,55.6,45.1,55.6,45.1,55.5l0.3,0c0,0,0,0,0,0h0c0,0,0,0,0,0s0,0,0,0c0,0,0,0,0,0  c0,0,0.1,0,0.1,0c7.9-0.1,14.4-5.7,14.4-12.5c0-0.6-0.2-1.1-0.6-1.6c-0.7-0.6-1.6-0.7-2-0.7c0,0-23.6,0-23.6,0c-1,0-1.8,0.2-2.3,0.8  c-0.6,0.6-0.6,1.3-0.6,1.5C30.7,49.8,37.1,55.4,45.1,55.5z"></path><circle cx="54.9" cy="29" r="4.6"></circle><circle cx="35.3" cy="29" r="4.6"></circle><path d="M87.2,88.3c5.4-5.8,8.6-13.6,8.6-22.2c0-8.9-3.6-17-9.4-22.9c-2.5,21-20.5,37.1-42.3,37l-10.5,0  C38.8,91.3,50.1,99,63.2,98.9l35.6-0.1L87.2,88.3z"></path><path d="M71.4,12C64.4,5.1,55.2,1.2,45.3,1.1c-20.4,0-37,16.5-37,36.9c0,8.3,2.8,16.5,7.8,22.9l0.3,0.4L1.2,74.8  L45.3,75c20.3,0,36.9-16.5,36.9-36.9C82.2,28.2,78.3,19,71.4,12z M45.3,70.3l-31.5-0.1l9.5-8.6l-1.7-1.8c-5.5-6-8.4-13.7-8.4-21.9  c0-17.6,14.4-32,32.1-32c8.7,0,16.8,3.4,22.8,9.5c6,6.1,9.3,14.2,9.3,22.8C77.4,55.9,63,70.3,45.3,70.3z"></path></svg></g></svg>